<svg version="1.2" xmlns="http://www.w3.org/2000/svg" viewBox="0 0 20.497503475806468 18.01493938946368" width="21" height="19">
	<style>
		.s0 { fill: #f6f6f6 } 
	</style>
	<path fill-rule="evenodd" class="s0" d="m10.25 1.33c-2.85-2.23-7.31-1.65-9.36 1.71-0.69 1.11-0.94 2.41-0.88 3.7 0.1 2.23 1.07 4.18 2.48 5.87 1.91 2.27 4.67 4.05 7.7 5.38q0.02 0.01 0.06 0.02 0.04-0.01 0.06-0.02c3.02-1.33 5.79-3.11 7.69-5.38 1.42-1.69 2.38-3.64 2.49-5.87 0.06-1.29-0.2-2.59-0.88-3.7-2.05-3.36-6.51-3.94-9.36-1.71zm0.02 2c1.31-1.41 2.83-2.05 4.59-1.8 1.82 0.26 3.37 1.56 3.92 3.31 0.43 1.35 0.25 2.86-0.32 4.24-0.88 2.14-3.49 5.19-8.21 7.32-4.72-2.13-7.33-5.18-8.22-7.32-0.56-1.38-0.74-2.89-0.32-4.24 0.55-1.75 2.1-3.05 3.92-3.31 1.77-0.25 3.29 0.39 4.59 1.8 0.01 0.01 0.03 0.03 0.03 0.03 0 0 0.02-0.02 0.02-0.03z"/>
	<path fill-rule="evenodd" class="s0" d="m10.18 9.58l-1.3-0.65c-0.45 0.66-0.78 1.11-1.73 0.85-0.74-0.21-0.96-1.02-0.99-1.71-0.04-0.93 0.29-2.01 1.41-1.95 0.71 0.04 1.01 0.46 1.17 0.84l1.42-0.73c-0.7-1.33-2.33-1.78-3.72-1.41-1.47 0.39-2.22 1.75-2.19 3.21 0.03 1.49 0.74 2.79 2.28 3.12 0.76 0.17 1.57 0.13 2.27-0.22 0.54-0.27 1.14-0.79 1.38-1.35zm6.11 0l-1.3-0.65c-0.45 0.66-0.78 1.11-1.72 0.85-0.75-0.21-0.97-1.02-1-1.71-0.04-0.93 0.29-2.01 1.41-1.95 0.71 0.04 1.01 0.46 1.17 0.84l1.42-0.73c-0.7-1.33-2.33-1.78-3.72-1.41-1.47 0.39-2.22 1.75-2.19 3.21 0.03 1.49 0.74 2.79 2.28 3.12 0.76 0.17 1.57 0.13 2.27-0.22 0.54-0.27 1.14-0.79 1.38-1.35z"/>
</svg>